<svg id="Light" xmlns="http://www.w3.org/2000/svg" viewBox="0 0 1200 1200"><defs><style>.cls-1{fill:#b9c6db;}.cls-2{fill:#f2f2f2;}.cls-3{font-size:600px;fill:#333;font-family:JetBrainsMonoNL-Bold, JetBrains Mono NL;font-weight:700;}</style></defs><title>logoLight</title><rect class="cls-1" x="95" y="95" width="1010" height="1010" rx="55"/><path class="cls-2" d="M1050,100a50.15,50.15,0,0,1,50,50v900a50.15,50.15,0,0,1-50,50H150a50.15,50.15,0,0,1-50-50V150a50.15,50.15,0,0,1,50-50h900m0-10H150a60.07,60.07,0,0,0-60,60v900a60.07,60.07,0,0,0,60,60h900a60.07,60.07,0,0,0,60-60V150a60.07,60.07,0,0,0-60-60Z"/><text class="cls-3" transform="translate(234.9 799.58)">Rh</text></svg>