<?xml version="1.0" encoding="utf-8"?>
<!-- Generator: Adobe Illustrator 22.1.0, SVG Export Plug-In . SVG Version: 6.00 Build 0)  -->
<svg version="1.1" id="Icon_Set" xmlns="http://www.w3.org/2000/svg" xmlns:xlink="http://www.w3.org/1999/xlink" x="0px" y="0px"
	 viewBox="0 0 512 512" style="enable-background:new 0 0 512 512;" xml:space="preserve">
<style type="text/css">
	.st0{fill:#F0C48A;}
	.st1{fill:#FD919E;}
	.st2{fill:#4C4372;}
	.st3{fill:#D3E6F8;}
	.st4{fill:#A4CFF2;}
	.st5{fill:#7BABF1;}
	.st6{fill:#FFFFFF;}
	.st7{fill:#E8677D;}
	.st8{fill:none;stroke:#4C4372;stroke-width:12;stroke-linecap:round;stroke-linejoin:round;stroke-miterlimit:10;}
</style>
<g id="Diagnostics">
	<g>
		<g>
			<circle class="st0" cx="256" cy="256" r="207"/>
		</g>
	</g>
	<g>
		<g>
			<g>
				<path class="st6" d="M298.88,383.366H132.402c-7.849,0-14.211-6.363-14.211-14.211V162.201c0-7.849,6.363-14.211,14.211-14.211
					H298.88c7.849,0,14.211,6.363,14.211,14.211v206.953C313.091,377.003,306.728,383.366,298.88,383.366z"/>
			</g>
			<g>
				<path class="st3" d="M298.88,147.99h-14.446v235.376h14.446c7.848,0,14.211-6.362,14.211-14.211V162.201
					C313.091,154.353,306.728,147.99,298.88,147.99z"/>
			</g>
			<g>
				<path class="st2" d="M298.88,389.366H132.402c-11.145,0-20.211-9.067-20.211-20.211V162.201
					c0-11.144,9.066-20.211,20.211-20.211H298.88c11.145,0,20.211,9.067,20.211,20.211v206.953
					C319.091,380.299,310.024,389.366,298.88,389.366z M132.402,153.99c-4.527,0-8.211,3.683-8.211,8.211v206.953
					c0,4.528,3.684,8.211,8.211,8.211H298.88c4.527,0,8.211-3.683,8.211-8.211V162.201c0-4.528-3.684-8.211-8.211-8.211H132.402z"/>
			</g>
			<g>
				<path class="st2" d="M219.66,276.495c-0.062,0-0.125-0.001-0.188-0.003c-2.399-0.075-4.524-1.573-5.4-3.809l-21.696-55.392
					l-13.83,27.283c-1.022,2.016-3.091,3.287-5.352,3.287h-24.945c-3.313,0-6-2.686-6-6s2.687-6,6-6h21.26l18.219-35.939
					c1.069-2.109,3.273-3.393,5.639-3.28c2.362,0.113,4.438,1.603,5.3,3.805l21.467,54.805l19.797-42.561
					c1.001-2.154,3.159-3.517,5.558-3.468c2.376,0.046,4.5,1.49,5.418,3.682l9.607,22.956h22.52c3.313,0,6,2.686,6,6s-2.687,6-6,6
					H256.52c-2.419,0-4.601-1.452-5.535-3.684l-5.904-14.107l-19.98,42.955C224.113,275.146,221.987,276.495,219.66,276.495z"/>
			</g>
			<g>
				<path class="st2" d="M231.408,308.32h-84.561c-3.313,0-6-2.686-6-6s2.687-6,6-6h84.561c3.313,0,6,2.686,6,6
					S234.722,308.32,231.408,308.32z"/>
			</g>
			<g>
				<path class="st2" d="M231.408,334.086h-84.561c-3.313,0-6-2.686-6-6s2.687-6,6-6h84.561c3.313,0,6,2.686,6,6
					S234.722,334.086,231.408,334.086z"/>
			</g>
			<g>
				<path class="st2" d="M231.408,359.851h-84.561c-3.313,0-6-2.686-6-6s2.687-6,6-6h84.561c3.313,0,6,2.686,6,6
					S234.722,359.851,231.408,359.851z"/>
			</g>
			<g>
				<path class="st1" d="M250.078,167.346h-68.874c-3.523,0-6.379-2.856-6.379-6.379v-25.954c0-3.523,2.856-6.379,6.379-6.379
					h68.874c3.523,0,6.379,2.856,6.379,6.379v25.954C256.457,164.49,253.601,167.346,250.078,167.346z"/>
			</g>
			<g>
				<rect x="254.133" y="302.32" class="st5" width="30.3" height="51.531"/>
			</g>
			<g>
				<path class="st2" d="M284.434,359.851h-30.3c-3.313,0-6-2.686-6-6V302.32c0-3.314,2.687-6,6-6h30.3c3.313,0,6,2.686,6,6v51.531
					C290.434,357.165,287.747,359.851,284.434,359.851z M260.134,347.851h18.3V308.32h-18.3V347.851z"/>
			</g>
			<g>
				<path class="st7" d="M231.408,128.634h18.669c3.523,0,6.379,2.856,6.379,6.379v25.954c0,3.523-2.856,6.379-6.379,6.379h-18.669
					V128.634z"/>
			</g>
			<g>
				<path class="st2" d="M250.078,173.346h-68.874c-6.826,0-12.38-5.553-12.38-12.379v-25.954c0-6.826,5.554-12.379,12.38-12.379
					h68.874c6.826,0,12.379,5.553,12.379,12.379v25.954C262.457,167.793,256.904,173.346,250.078,173.346z M181.204,134.634
					c-0.21,0-0.38,0.17-0.38,0.379v25.954c0,0.209,0.17,0.379,0.38,0.379h68.874c0.209,0,0.379-0.17,0.379-0.379v-25.954
					c0-0.209-0.17-0.379-0.379-0.379H181.204z"/>
			</g>
		</g>
		<g>
			<g>
				<path class="st4" d="M348.32,383.366L348.32,383.366c-7.148,0-12.943-5.795-12.943-12.943V262.938h25.885v107.485
					C361.263,377.571,355.468,383.366,348.32,383.366z"/>
			</g>
			<g>
				<path class="st2" d="M348.32,389.366c-10.445,0-18.943-8.498-18.943-18.943V262.938c0-3.314,2.687-6,6-6h25.886
					c3.313,0,6,2.686,6,6v107.485C367.263,380.868,358.766,389.366,348.32,389.366z M341.377,268.938v101.485
					c0,3.828,3.115,6.943,6.943,6.943s6.942-3.115,6.942-6.943V268.938H341.377z"/>
			</g>
			<g>
				<path class="st2" d="M361.263,365.834h-25.886c-3.313,0-6-2.686-6-6s2.687-6,6-6h25.886c3.313,0,6,2.686,6,6
					S364.576,365.834,361.263,365.834z"/>
			</g>
			<g>
				<circle class="st3" cx="348.32" cy="239.038" r="65.489"/>
			</g>
			<g>
				<circle class="st6" cx="348.32" cy="239.038" r="42.493"/>
			</g>
			<g>
				<path class="st2" d="M348.32,310.527c-39.419,0-71.489-32.07-71.489-71.489s32.07-71.489,71.489-71.489
					s71.488,32.07,71.488,71.489S387.739,310.527,348.32,310.527z M348.32,179.549c-32.803,0-59.489,26.687-59.489,59.489
					s26.687,59.489,59.489,59.489c32.802,0,59.488-26.687,59.488-59.489S381.122,179.549,348.32,179.549z"/>
			</g>
			<g>
				<path class="st2" d="M348.32,287.531c-26.739,0-48.493-21.754-48.493-48.492c0-26.739,21.754-48.493,48.493-48.493
					c26.738,0,48.492,21.754,48.492,48.493C396.812,265.777,375.059,287.531,348.32,287.531z M348.32,202.546
					c-20.122,0-36.493,16.37-36.493,36.493c0,20.122,16.371,36.492,36.493,36.492s36.492-16.37,36.492-36.492
					C384.812,218.916,368.442,202.546,348.32,202.546z"/>
			</g>
		</g>
	</g>
</g>
</svg>
