<svg xmlns="http://www.w3.org/2000/svg" width="128" height="128" viewBox="0 0 128 128">
  <title>MEDICAL APOINTMENT</title>
  <g>
    <path d="M109.07,43.29V96.94a12.148,12.148,0,0,1-12.15,12.14H31.15A12.148,12.148,0,0,1,19,96.94V43.29A12.15,12.15,0,0,1,31.15,31.14h2.94v4.82a7.32,7.32,0,0,0,14.64,0V31.14H79.27v4.82a7.32,7.32,0,1,0,14.64,0V31.14h3.01A12.15,12.15,0,0,1,109.07,43.29Z" fill="#f89068"/>
    <path d="M72.843,59.4a10.749,10.749,0,0,0-6.62,2.295,3.618,3.618,0,0,1-4.446,0,10.749,10.749,0,0,0-6.62-2.295c-6.226,0-11.272,5.384-11.272,12.025A12.339,12.339,0,0,0,47.766,80.5a8.166,8.166,0,0,1,2.749,6.167c0,.149-.006.3-.006.451a15.867,15.867,0,0,0,5.45,12.2,1.6,1.6,0,0,0,2.62-1.26q0-.314-.005-.632c0-8.223,2.43-14.89,5.426-14.89s5.426,6.667,5.426,14.89q0,.318,0,.632a1.6,1.6,0,0,0,2.62,1.26,15.867,15.867,0,0,0,5.45-12.2c0-.151,0-.3-.006-.451A8.166,8.166,0,0,1,80.234,80.5a12.339,12.339,0,0,0,3.881-9.077C84.115,64.782,79.069,59.4,72.843,59.4Z" fill="#fffff8"/>
    <path d="M48.73,26.32v9.64a7.32,7.32,0,0,1-14.64,0V26.32a7.32,7.32,0,0,1,14.64,0Z" fill="#4453e2"/>
    <path d="M93.91,26.32v9.64a7.32,7.32,0,1,1-14.64,0V26.32a7.32,7.32,0,0,1,14.64,0Z" fill="#4453e2"/>
    <path d="M109.07,43.29v8.24H19V43.29A12.15,12.15,0,0,1,31.15,31.14h2.94v4.82a7.32,7.32,0,0,0,14.64,0V31.14H79.27v4.82a7.32,7.32,0,1,0,14.64,0V31.14h3.01A12.15,12.15,0,0,1,109.07,43.29Z" fill="#ffc26f"/>
  </g>
  <path d="M85.865,71.423c0-7.595-5.842-13.775-13.021-13.775a12.451,12.451,0,0,0-7.693,2.662,1.876,1.876,0,0,1-2.3,0,12.446,12.446,0,0,0-7.693-2.663c-7.181,0-13.023,6.18-13.023,13.775a14.129,14.129,0,0,0,4.443,10.361,6.459,6.459,0,0,1,2.188,4.837c0,.165-.006.331-.006.5a17.515,17.515,0,0,0,6.077,13.543,3.351,3.351,0,0,0,5.493-2.626l0-.608c0-8.535,2.609-13.14,3.675-13.14s3.676,4.6,3.676,13.14l0,.6a3.319,3.319,0,0,0,1.913,3.079,3.368,3.368,0,0,0,1.451.333,3.315,3.315,0,0,0,2.13-.782,17.519,17.519,0,0,0,6.076-13.543c0-.166,0-.332-.007-.5a6.376,6.376,0,0,1,2.189-4.837A14.132,14.132,0,0,0,85.865,71.423Zm-6.821,7.793a9.955,9.955,0,0,0-3.308,7.5c0,.135,0,.27,0,.406a14.28,14.28,0,0,1-4.568,10.639l0-.33c0-8.269-2.465-16.64-7.176-16.64s-7.175,8.371-7.175,16.64l0,.33a14.277,14.277,0,0,1-4.568-10.639c0-.136,0-.271.005-.406a9.955,9.955,0,0,0-3.308-7.5,10.62,10.62,0,0,1-3.322-7.793c0-5.665,4.272-10.275,9.523-10.275A8.979,8.979,0,0,1,60.7,63.075a5.374,5.374,0,0,0,6.593,0,8.977,8.977,0,0,1,5.547-1.927c5.25,0,9.521,4.61,9.521,10.275A10.623,10.623,0,0,1,79.044,79.216ZM17.25,70.11V69a1.75,1.75,0,0,1,3.5,0v1.11a1.75,1.75,0,0,1-3.5,0Zm13.9,40.72H96.92a13.91,13.91,0,0,0,13.9-13.89V43.29a13.915,13.915,0,0,0-13.9-13.9H95.66V26.32a9.07,9.07,0,1,0-18.14,0v3.07H50.48V26.32a9.07,9.07,0,0,0-18.14,0v3.07H31.15a13.915,13.915,0,0,0-13.9,13.9V59.4a1.75,1.75,0,0,0,3.5,0V53.28h86.57V96.94a10.407,10.407,0,0,1-10.4,10.39H31.15a10.407,10.407,0,0,1-10.4-10.39V79a1.75,1.75,0,0,0-3.5,0V96.94A13.91,13.91,0,0,0,31.15,110.83ZM81.02,31.14V26.32a5.577,5.577,0,0,1,5.57-5.57,5.575,5.575,0,0,1,5.57,5.57v9.64a5.57,5.57,0,1,1-11.14,0Zm-45.18,0V26.32a5.57,5.57,0,0,1,11.14,0v9.64a5.57,5.57,0,0,1-11.14,0ZM20.75,49.78V43.29a10.413,10.413,0,0,1,10.4-10.4h1.19v3.07a9.07,9.07,0,0,0,18.14,0V32.89H77.52v3.07a9.07,9.07,0,1,0,18.14,0V32.89h1.26a10.413,10.413,0,0,1,10.4,10.4v6.49Z" fill="#13134c"/>
</svg>
