<?xml version="1.0" encoding="utf-8"?>
<!-- Generator: Adobe Illustrator 23.0.6, SVG Export Plug-In . SVG Version: 6.00 Build 0)  -->
<svg version="1.1" id="Layer_1" xmlns="http://www.w3.org/2000/svg" xmlns:xlink="http://www.w3.org/1999/xlink" x="0px" y="0px"
	 viewBox="0 0 64 64" style="enable-background:new 0 0 64 64;" xml:space="preserve">
<style type="text/css">
	.st0{fill:#F9C995;}
	.st1{fill:#C52026;}
	.st2{fill:#DDDDDD;}
	.st3{fill:#787878;}
	.st4{fill:#FDC88D;}
	.st5{fill:#2D2D2D;}
	.st6{fill:#47C8F5;}
	.st7{fill:none;}
	.st8{fill:#BCBCBC;}
	.st9{fill:#606161;}
	.st10{fill:#F37B87;}
	.st11{fill:#FFC613;}
	.st12{fill:#FFFFFF;}
	.st13{fill:#E2A538;}
	.st14{fill:#FAE7D0;}
	.st15{fill:#F3AE3D;}
	.st16{fill:#81C341;}
	.st17{fill:none;stroke:#000000;stroke-width:2;stroke-linecap:round;stroke-linejoin:round;stroke-miterlimit:10;}
	.st18{opacity:0.3;}
	.st19{opacity:0.3;fill:#FFFFFF;}
</style>
<g id="Vector">
	<g>
		<path class="st4" d="M47.26,20.98c0,0.33-0.01,0.66-0.02,0.98c-0.11,2.33-0.59,4.53-1.37,6.53c-1.66,4.23-4.69,7.51-8.38,8.99
			c-1.4,0.57-2.91,0.87-4.47,0.87c-1.69,0-3.33-0.37-4.84-1.02c-3.51-1.54-6.38-4.71-7.98-8.75c-0.81-2.03-1.3-4.28-1.41-6.66
			c-0.01-0.31-0.02-0.62-0.02-0.95c12.31-2.49,13.17-10.32,13.17-10.32S38.53,20.3,47.26,20.98z"/>
		<path class="st5" d="M47.26,20.98c-8.73-0.68-15.32-10.32-15.32-10.32s-0.86,7.83-13.17,10.32c0-9.61,6.38-17.39,14.25-17.39
			C40.88,3.59,47.26,11.37,47.26,20.98z"/>
		<path class="st4" d="M50.73,25.59c0,2.04-1.35,3.68-3.01,3.68c-0.7,0-1.35-0.29-1.85-0.79c0.78-1.99,1.26-4.2,1.37-6.53
			c0.16-0.03,0.32-0.05,0.48-0.05C49.38,21.9,50.73,23.55,50.73,25.59z"/>
		<path class="st4" d="M20.2,28.58c-0.48,0.44-1.09,0.69-1.75,0.69c-1.66,0-3.01-1.65-3.01-3.68c0-2.04,1.35-3.68,3.01-3.68
			c0.11,0,0.23,0.01,0.33,0.02C18.9,24.31,19.39,26.56,20.2,28.58z"/>
		<path class="st6" d="M55,48.76v6.79c0,3.37-2.74,6.11-6.11,6.11H16.71c-3.37,0-6.11-2.74-6.11-6.11v-6.79
			c0-3.37,2.74-6.11,6.11-6.11h11.47l4.62,6.4l4.69-6.4H48.9C52.27,42.65,55,45.39,55,48.76z"/>
		<path class="st4" d="M37.49,37.48v5.17l-4.69,6.4l-4.62-6.4v-5.32c1.51,0.66,3.15,1.02,4.84,1.02
			C34.58,38.35,36.09,38.05,37.49,37.48z"/>
		<circle class="st8" cx="44.64" cy="53.42" r="2.62"/>
		<path class="st7" d="M18.55,56.04h-3.1c-0.55-4.7,2.47-8.15,4.87-8.22c2.42-0.08,5.68,3.23,5.35,8.02h-3.04"/>
	</g>
</g>
<g id="Line">
	<g>
		<path class="st17" d="M47.26,20.98c0,0.33-0.01,0.66-0.02,0.98c-0.11,2.33-0.59,4.53-1.37,6.53c-1.66,4.23-4.69,7.51-8.38,8.99
			c-1.4,0.57-2.91,0.87-4.47,0.87c-1.69,0-3.33-0.37-4.84-1.02c-3.51-1.54-6.38-4.71-7.98-8.75c-0.81-2.03-1.3-4.28-1.41-6.66
			c-0.01-0.31-0.02-0.62-0.02-0.95c12.31-2.49,13.17-10.32,13.17-10.32S38.53,20.3,47.26,20.98z"/>
		<path class="st17" d="M47.26,20.98c-8.73-0.68-15.32-10.32-15.32-10.32s-0.86,7.83-13.17,10.32c0-9.61,6.38-17.39,14.25-17.39
			C40.88,3.59,47.26,11.37,47.26,20.98z"/>
		<path class="st17" d="M50.73,25.59c0,2.04-1.35,3.68-3.01,3.68c-0.7,0-1.35-0.29-1.85-0.79c0.78-1.99,1.26-4.2,1.37-6.53
			c0.16-0.03,0.32-0.05,0.48-0.05C49.38,21.9,50.73,23.55,50.73,25.59z"/>
		<path class="st17" d="M20.2,28.58c-0.48,0.44-1.09,0.69-1.75,0.69c-1.66,0-3.01-1.65-3.01-3.68c0-2.04,1.35-3.68,3.01-3.68
			c0.11,0,0.23,0.01,0.33,0.02C18.9,24.31,19.39,26.56,20.2,28.58z"/>
		<path class="st17" d="M55,48.76v6.79c0,3.37-2.74,6.11-6.11,6.11H16.71c-3.37,0-6.11-2.74-6.11-6.11v-6.79
			c0-3.37,2.74-6.11,6.11-6.11h11.47l4.62,6.4l4.69-6.4H48.9C52.27,42.65,55,45.39,55,48.76z"/>
		<path class="st17" d="M37.49,37.48v5.17l-4.69,6.4l-4.62-6.4v-5.32c1.51,0.66,3.15,1.02,4.84,1.02
			C34.58,38.35,36.09,38.05,37.49,37.48z"/>
		<line class="st17" x1="32.8" y1="49.05" x2="32.8" y2="61.65"/>
		<circle class="st17" cx="44.64" cy="53.42" r="2.62"/>
		<line class="st17" x1="44.64" y1="50.79" x2="44.64" y2="42.65"/>
		<line class="st17" x1="20.2" y1="42.65" x2="20.2" y2="47.5"/>
		<path class="st17" d="M18.55,56.04h-3.1c-0.55-4.7,2.47-8.15,4.87-8.22c2.42-0.08,5.68,3.23,5.35,8.02h-3.04"/>
	</g>
</g>
<g id="shadow">
	<path class="st18" d="M48.9,42.65H37.49v-5.17c3.69-1.49,6.72-4.76,8.38-8.99c0.51,0.5,1.15,0.79,1.85,0.79
		c1.66,0,3.01-1.65,3.01-3.68c0-2.04-1.35-3.68-3.01-3.68c-0.16,0-0.32,0.02-0.48,0.05c0.01-0.32,0.02-0.65,0.02-0.98
		c0-9.57-6.33-17.32-14.15-17.38c0.15,0.17,0.32,0.34,0.53,0.51c1.36,1.12,2.99,1.6,4.19,2.98c1.59,1.84,2.82,4.31,3.84,6.5
		c1.91,4.09,2.96,8.7,2.15,13.14c-0.81,4.44-3.18,10.62-7.69,10.62v6.12c3.56,0,6.89,2.74,9.18,5.47c2.29,2.73,3.46,6.37,3.2,9.92
		c-0.07,0.91-0.21,1.86-0.24,2.79h0.62c3.37,0,6.11-2.74,6.11-6.11v-6.79C55,45.39,52.27,42.65,48.9,42.65z"/>
</g>
<g id="Highligth">
	<path class="st19" d="M16.71,42.65h11.41v-5.17c-3.69-1.49-6.72-4.76-8.38-8.99c-0.51,0.5-1.15,0.79-1.85,0.79
		c-1.66,0-3.01-1.65-3.01-3.68c0-2.04,1.35-3.68,3.01-3.68c0.16,0,0.32,0.02,0.48,0.05c-0.01-0.32-0.02-0.65-0.02-0.98
		c0-9.57,6.33-17.32,14.15-17.38c-0.15,0.17-0.32,0.34-0.53,0.51c-1.36,1.12-2.99,1.6-4.19,2.98c-1.59,1.84-2.82,4.31-3.84,6.5
		c-1.91,4.09-2.96,8.7-2.15,13.14c0.81,4.44,3.18,10.62,7.69,10.62v6.12c-3.56,0-6.89,2.74-9.18,5.47c-2.29,2.73-3.46,6.37-3.2,9.92
		c0.07,0.91,0.21,1.86,0.24,2.79h-0.62c-3.37,0-6.11-2.74-6.11-6.11v-6.79C10.6,45.39,13.34,42.65,16.71,42.65z"/>
</g>
</svg>
