<?xml version="1.0" encoding="utf-8"?>
<!-- Generator: Adobe Illustrator 22.1.0, SVG Export Plug-In . SVG Version: 6.00 Build 0)  -->
<svg version="1.1" id="Icon_Set" xmlns="http://www.w3.org/2000/svg" xmlns:xlink="http://www.w3.org/1999/xlink" x="0px" y="0px"
	 viewBox="0 0 512 512" style="enable-background:new 0 0 512 512;" xml:space="preserve">
<style type="text/css">
	.st0{fill:#F0C48A;}
	.st1{fill:#FD919E;}
	.st2{fill:#4C4372;}
	.st3{fill:#D3E6F8;}
	.st4{fill:#A4CFF2;}
	.st5{fill:#7BABF1;}
	.st6{fill:#FFFFFF;}
	.st7{fill:#E8677D;}
	.st8{fill:none;stroke:#4C4372;stroke-width:12;stroke-linecap:round;stroke-linejoin:round;stroke-miterlimit:10;}
</style>
<g id="Lungs">
	<g>
		<g>
			<circle class="st0" cx="256" cy="256" r="207"/>
		</g>
	</g>
	<g>
		<g>
			<path class="st1" d="M390.605,376.842h-80.825c-13.719,0-24.841-11.122-24.841-24.841V209.218
				c0-8.772,7.111-15.883,15.883-15.883h0c63.305,0,114.623,51.319,114.623,114.623v44.043
				C415.446,365.72,404.325,376.842,390.605,376.842z"/>
		</g>
		<g>
			<path class="st1" d="M121.395,376.842h80.825c13.719,0,24.841-11.122,24.841-24.841V209.218c0-8.772-7.111-15.883-15.883-15.883
				h0c-63.305,0-114.623,51.319-114.623,114.623v44.043C96.554,365.72,107.675,376.842,121.395,376.842z"/>
		</g>
		<g>
			<path class="st7" d="M300.823,193.334L300.823,193.334c-2.471,0-4.8,0.58-6.885,1.587C348.169,204,389.5,251.148,389.5,307.957
				v44.043c0,13.72-11.122,24.841-24.841,24.841h25.947c13.719,0,24.841-11.121,24.841-24.841v-44.043
				C415.446,244.653,364.128,193.334,300.823,193.334z"/>
		</g>
		<g>
			<path class="st7" d="M211.177,193.334L211.177,193.334c-5.509,0-10.925,0.397-16.227,1.149c5.842,2.346,9.973,8.053,9.973,14.734
				v142.783c0,13.72-11.122,24.841-24.841,24.841h22.137c13.719,0,24.841-11.121,24.841-24.841V209.218
				C227.06,200.446,219.949,193.334,211.177,193.334z"/>
		</g>
		<g>
			<path class="st2" d="M390.605,382.842h-80.825c-17.006,0-30.841-13.835-30.841-30.841V209.218
				c0-12.066,9.817-21.884,21.883-21.884c66.512,0,120.623,54.111,120.623,120.624v44.043
				C421.446,369.007,407.611,382.842,390.605,382.842z M300.823,199.334c-5.45,0-9.883,4.434-9.883,9.884v142.783
				c0,10.389,8.452,18.841,18.841,18.841h80.825c10.389,0,18.841-8.452,18.841-18.841v-44.043
				C409.446,248.062,360.718,199.334,300.823,199.334z"/>
		</g>
		<g>
			<path class="st2" d="M202.219,382.842h-80.825c-17.006,0-30.841-13.835-30.841-30.841v-44.043
				c0-66.513,54.111-120.624,120.623-120.624c12.066,0,21.883,9.817,21.883,21.884v142.783
				C233.06,369.007,219.225,382.842,202.219,382.842z M211.177,199.334c-59.895,0-108.623,48.729-108.623,108.624v44.043
				c0,10.389,8.452,18.841,18.841,18.841h80.825c10.389,0,18.841-8.452,18.841-18.841V209.218
				C221.06,203.768,216.626,199.334,211.177,199.334z"/>
		</g>
		<g>
			<path class="st5" d="M335.055,301.498l-20.929-17.007l10.803-10.802c4.483-4.484,4.483-11.753,0-16.237
				c-4.483-4.484-11.753-4.483-16.237,0l-12.481,12.481l-28.73-23.345V106.639c0-6.341-5.14-11.481-11.481-11.481
				s-11.481,5.14-11.481,11.481v139.949l-28.73,23.345l-12.481-12.481c-4.484-4.483-11.754-4.483-16.237,0
				c-4.483,4.484-4.483,11.753,0,16.237l10.803,10.802l-20.929,17.007c-4.921,3.999-5.669,11.23-1.67,16.151
				c3.999,4.922,11.23,5.669,16.151,1.67L256,266.846l64.575,52.473c2.128,1.729,4.689,2.572,7.234,2.571
				c3.338,0,6.648-1.449,8.917-4.241C340.724,312.728,339.977,305.497,335.055,301.498z"/>
		</g>
		<g>
			<path class="st2" d="M184.217,327.893c-0.607,0-1.217-0.032-1.83-0.095c-4.646-0.48-8.825-2.74-11.77-6.365
				c-6.078-7.48-4.938-18.512,2.542-24.591l15.767-12.812l-6.099-6.098c-6.815-6.816-6.815-17.907,0-24.723
				c6.815-6.814,17.906-6.815,24.722-0.001l8.656,8.655l22.313-18.131V106.64c0-9.64,7.842-17.481,17.481-17.481
				S273.481,97,273.481,106.64v137.094l22.313,18.131l8.655-8.654c6.818-6.817,17.908-6.815,24.722,0
				c6.815,6.815,6.815,17.906,0,24.722l-6.099,6.099l15.767,12.812c0,0,0,0,0,0c7.48,6.079,8.621,17.11,2.542,24.592
				c-3.336,4.104-8.283,6.456-13.574,6.456c-0.002,0-0.004,0-0.007,0c-3.993,0-7.904-1.39-11.01-3.914L256,274.578l-60.792,49.397
				C192.063,326.532,188.216,327.892,184.217,327.893z M195.189,260.093c-1.404,0-2.807,0.534-3.876,1.603
				c-2.136,2.137-2.136,5.614,0.001,7.752l10.802,10.801c1.202,1.201,1.837,2.855,1.75,4.552s-0.89,3.276-2.208,4.348l-20.93,17.007
				c-2.345,1.906-2.703,5.365-0.797,7.711c0.923,1.137,2.233,1.846,3.69,1.996c1.454,0.146,2.884-0.274,4.02-1.198l64.575-52.473
				c2.204-1.791,5.363-1.791,7.567,0l64.575,52.473c1.248,1.014,2.562,1.227,3.445,1.227c0,0,0.001,0,0.002,0
				c1.665,0,3.218-0.738,4.264-2.024c1.905-2.346,1.547-5.805-0.798-7.711l-20.929-17.007c-1.318-1.071-2.121-2.651-2.208-4.348
				s0.548-3.351,1.75-4.552l10.802-10.802c2.137-2.137,2.137-5.614,0-7.752c-2.136-2.137-5.614-2.136-7.751,0.001l-12.481,12.48
				c-2.174,2.175-5.64,2.354-8.026,0.414l-28.729-23.345c-1.402-1.139-2.216-2.85-2.216-4.656V106.64
				c0-3.022-2.458-5.481-5.481-5.481s-5.481,2.459-5.481,5.481v139.949c0,1.807-0.814,3.518-2.216,4.656l-28.729,23.345
				c-2.386,1.94-5.853,1.761-8.026-0.414l-12.481-12.481C197.997,260.627,196.593,260.093,195.189,260.093z"/>
		</g>
	</g>
</g>
</svg>
